<svg width="995" height="995" viewBox="0 0 995 995" xmlns="http://www.w3.org/2000/svg">
  <path fill="#000000" d="M323.972 764.183C323.972 794.917 330.671 817.377 344.068 831.562C357.727 845.746 376.902 852.839 401.593 852.839C426.548 852.839 445.724 845.746 459.121 831.562C472.78 817.377 479.609 794.917 479.609 764.183V608.94H517.83V765.759C517.83 805.687 507.454 836.027 486.703 856.779C466.214 877.53 437.713 887.905 401.201 887.905C364.951 887.905 336.449 877.53 315.697 856.779C294.945 836.027 284.57 805.686 284.57 765.759V608.94H323.972V764.183ZM561.996 608.94C591.416 608.94 617.29 614.719 639.618 626.277C662.208 637.835 679.677 653.99 692.023 674.742C704.631 695.494 710.935 719.528 710.935 746.847C710.935 774.165 704.631 798.201 692.023 818.953C679.677 839.704 662.208 855.859 639.618 867.417C617.29 878.974 591.416 884.753 561.996 884.753H484.192C490.116 880.663 495.681 876.007 500.862 870.759C507.02 864.588 512.346 857.81 516.887 850.474H559.631C582.484 850.474 602.186 846.14 618.735 837.471C635.546 828.803 648.55 816.72 657.744 801.222C666.937 785.461 671.534 767.336 671.534 746.847C671.534 726.095 666.937 707.969 657.744 692.471C648.55 676.973 635.546 664.89 618.735 656.222C602.186 647.554 582.484 643.219 559.631 643.219H537.73V608.94H561.996ZM642.77 105.47C680.138 105.47 710.43 135.762 710.43 173.13V666.765C709.971 665.975 709.504 665.189 709.029 664.407C703.175 654.596 696.332 645.687 688.54 637.684V179.1C688.54 150.525 665.375 127.36 636.8 127.36H586.739C586.158 127.382 584.89 127.53 584.065 128.355C583.24 129.18 583.092 130.448 583.07 131.029V135.32C583.07 149.608 571.488 161.19 557.2 161.19H437.8C423.512 161.19 411.93 149.608 411.93 135.32V131.029C411.908 130.448 411.76 129.18 410.935 128.355C410.11 127.53 408.843 127.382 408.261 127.36H358.2C329.625 127.36 306.46 150.525 306.46 179.1V589.04H284.57V173.13C284.57 135.762 314.862 105.47 352.23 105.47H642.77Z"/>
</svg>
